<svg xmlns:xlink="http://www.w3.org/1999/xlink" width="21.207ex" height="2.843ex" style="font-size: 15px; vertical-align: -0.838ex;" viewBox="0 -863.1 9130.7 1223.9" role="img" focusable="false" xmlns="http://www.w3.org/2000/svg">
<defs>
<path stroke-width="1" id="E1-MJTT-4B" d="M18 549T18 573T29 604T70 611H118H193Q207 603 210 596T214 573Q214 549 198 538Q191 535 172 535H152V421Q152 344 152 326T153 309L242 422L329 534Q327 535 322 536T314 538T308 542T303 548T300 558T298 573Q298 600 316 608Q322 611 392 611H463Q477 602 481 595T485 573Q485 535 446 535H441H420L281 357L436 77L454 76Q473 75 478 73Q495 62 495 38Q495 10 473 1H345Q334 5 329 11T324 21T323 38Q323 51 324 56T332 68T355 77L233 296L152 192V76H172Q191 76 198 73Q214 63 214 38Q214 9 193 1H41Q18 8 18 38Q18 61 35 73Q42 76 61 76H81V535H61Q42 535 35 538Q18 549 18 573Z"></path>
<path stroke-width="1" id="E1-MJTT-4C" d="M27 594Q34 605 43 608T84 611H154H213Q258 611 269 605T281 573Q281 546 263 538Q257 535 222 535H185V76H404V118V145Q404 168 411 177T446 186H453Q478 186 486 167Q488 161 488 93V50Q488 24 485 17T466 1L258 0H147H99Q47 0 36 6T25 38Q25 59 35 69Q44 76 76 76H101V535H76H64Q36 535 27 552Q25 557 25 573T27 594Z"></path>
<path stroke-width="1" id="E1-MJMAINI-28" d="M241 -250Q203 -212 174 -140T144 39Q144 158 180 288T296 544T481 746L487 750H499Q517 750 517 740Q517 736 495 716Q399 630 331 491T236 228T208 3Q208 -73 224 -130T255 -214T271 -244Q271 -250 252 -250H241Z"></path>
<path stroke-width="1" id="E1-MJMAINI-70" d="M81 278Q75 284 75 287Q93 379 131 417Q154 442 189 442Q222 440 243 423T272 382L280 390Q335 442 389 442Q446 442 482 398T518 284Q518 212 480 137T375 19Q321 -10 291 -10H282H278Q237 -10 204 28L202 32L181 -51Q160 -135 160 -139Q160 -147 205 -148H230Q236 -155 236 -157T233 -175Q230 -187 227 -190T214 -194Q211 -194 202 -194T169 -193T108 -192Q40 -192 21 -194H13Q6 -187 6 -183T9 -167Q13 -153 16 -151T39 -148Q73 -147 78 -136Q82 -128 139 104Q199 337 199 347Q202 362 202 372Q202 406 182 406Q169 406 159 391Q145 374 132 328T117 280T98 278H81ZM221 111Q234 26 286 26Q307 26 336 47T385 116Q398 147 416 217T435 332Q435 354 433 361Q420 405 383 405Q333 405 279 326L273 317L221 111Z"></path>
<path stroke-width="1" id="E1-MJMAIN-2225" d="M133 736Q138 750 153 750Q164 750 170 739Q172 735 172 250T170 -239Q164 -250 152 -250Q144 -250 138 -244L137 -243Q133 -241 133 -179T132 250Q132 731 133 736ZM329 739Q334 750 346 750Q353 750 361 744L362 743Q366 741 366 679T367 250T367 -178T362 -243L361 -244Q355 -250 347 -250Q335 -250 329 -239Q327 -235 327 250T329 739Z"></path>
<path stroke-width="1" id="E1-MJMAINI-71" d="M228 -11Q172 -11 137 33T101 147Q101 205 125 266T201 377T318 441Q322 442 333 442Q388 442 420 394L429 403Q439 413 455 423T481 437T494 442Q498 442 501 439T504 434Q504 425 435 149Q364 -135 364 -139Q364 -147 409 -148H434Q440 -155 440 -157T437 -175Q433 -191 429 -193Q425 -194 418 -194Q416 -194 406 -194T372 -193T309 -192Q259 -192 233 -192T204 -193Q190 -193 190 -184Q190 -181 192 -169Q196 -153 199 -151T219 -148Q266 -148 277 -141Q283 -137 305 -51L325 29L316 22Q270 -11 228 -11ZM397 323Q397 329 394 340T385 367T365 394T333 405Q302 405 271 372Q249 349 235 316T203 215Q184 135 184 108V100Q184 71 191 56Q204 26 235 26Q267 26 300 57T344 112Q347 117 372 217T397 323Z"></path>
<path stroke-width="1" id="E1-MJMAINI-29" d="M326 497Q326 546 320 588T304 655T285 699T269 728T262 740Q262 746 267 749L272 750Q276 750 281 750H293Q331 712 360 640T390 461Q390 332 339 171T188 -116Q161 -150 121 -188T47 -250H35Q17 -250 17 -240Q17 -236 39 -216Q135 -130 203 9T298 272T326 497Z"></path>
<path stroke-width="1" id="E1-MJMAIN-2261" d="M56 444Q56 457 70 464H707Q722 456 722 444Q722 430 706 424H72Q56 429 56 444ZM56 237T56 250T70 270H707Q722 262 722 250T707 230H70Q56 237 56 250ZM56 56Q56 71 72 76H706Q722 70 722 56Q722 44 707 36H70Q56 43 56 56Z"></path>
<path stroke-width="1" id="E1-MJMAIN-338" d="M-612 -215T-619 -215T-631 -212T-637 -204T-639 -197Q-639 -190 -634 -183Q-621 -157 -400 274T-176 707Q-173 716 -160 716Q-153 716 -148 712T-142 703T-140 696Q-140 691 -372 241T-608 -212Q-612 -215 -619 -215Z"></path>
</defs>
<g stroke="currentColor" fill="currentColor" stroke-width="0" transform="matrix(1 0 0 -1 0 0)">
 <use xlink:href="#E1-MJTT-4B" x="0" y="0"></use>
 <use xlink:href="#E1-MJTT-4C" x="525" y="0"></use>
 <use xlink:href="#E1-MJMAINI-28" x="1051" y="0"></use>
 <use xlink:href="#E1-MJMAINI-70" x="1460" y="0"></use>
 <use xlink:href="#E1-MJMAIN-2225" x="2249" y="0"></use>
 <use xlink:href="#E1-MJMAINI-71" x="3028" y="0"></use>
 <use xlink:href="#E1-MJMAINI-29" x="3488" y="0"></use>
<g transform="translate(4175,0)">
 <use xlink:href="#E1-MJMAIN-2261"></use>
 <use xlink:href="#E1-MJMAIN-338" x="778" y="0"></use>
</g>
 <use xlink:href="#E1-MJTT-4B" x="5232" y="0"></use>
 <use xlink:href="#E1-MJTT-4C" x="5758" y="0"></use>
 <use xlink:href="#E1-MJMAINI-28" x="6283" y="0"></use>
 <use xlink:href="#E1-MJMAINI-71" x="6693" y="0"></use>
 <use xlink:href="#E1-MJMAIN-2225" x="7431" y="0"></use>
 <use xlink:href="#E1-MJMAINI-70" x="8209" y="0"></use>
 <use xlink:href="#E1-MJMAINI-29" x="8721" y="0"></use>
</g>
</svg>